<?xml version="1.0" encoding="utf-8"?>
<svg viewBox="1.188 15.44 340.261 377.078" xmlns="http://www.w3.org/2000/svg" xmlns:bx="https://boxy-svg.com">
  <circle style="fill: rgb(85, 98, 218);" cx="167.459" cy="286.817" r="117.439" transform="matrix(0.936796, 0, 0, 0.446318, 18.600969, 195.325348)"/>
  <circle style="fill: rgb(85, 98, 218);" cx="170.428" cy="149.05" r="57.162"/>
  <rect x="239.015" y="137.766" width="64.727" height="22.565" style="fill: rgb(85, 98, 218);"/>
  <rect x="200.416" y="110.715" width="64.727" height="22.565" style="fill: rgb(85, 98, 218);" transform="matrix(0, -1, 1, 0, 148.48941, 380.641785)"/>
  <path d="M 188 146 m -164 0 a 164 182.283 0 1 0 328 0 a 164 182.283 0 1 0 -328 0 Z M 188 146 m -152 0 a 152 168.025 0 0 1 304 0 a 152 168.025 0 0 1 -304 0 Z" style="fill: rgb(85, 98, 218);" transform="matrix(-0.999596, 0.028413, -0.021837, -0.999783, 364.50833, 345.728576)" bx:shape="ring 188 146 152 168.025 164 182.283 1@97279b6f"/>
  <path style="fill: rgb(85, 98, 218);" transform="matrix(-0.002676, 0.593819, -0.541174, -0.002439, 548.616638, 234.247208)" d="M 157.723 891.922 A 202.956 202.956 0 1 1 154 486.044 L 154 689 Z" bx:shape="pie 154 689 0 202.956 178.949 360 1@8b10992c"/>
</svg>